<?xml version="1.0" encoding="utf-8"?>
<!-- Generator: Adobe Illustrator 26.4.1, SVG Export Plug-In . SVG Version: 6.00 Build 0)  -->
<svg version="1.1" xmlns="http://www.w3.org/2000/svg" xmlns:xlink="http://www.w3.org/1999/xlink" x="0px" y="0px"
	 viewBox="0 0 115.7 125" style="enable-background:new 0 0 115.7 125;" xml:space="preserve">
<style type="text/css">
	.st0{fill:#D6D3C2;}
	.st1{fill:#212121;}
	.st2{fill:#FFB656;}
	.st3{fill:#1D7874;}
	.st4{fill:#EF476F;}
	.st5{fill:none;stroke:#FFFFFF;stroke-width:6;stroke-linecap:round;stroke-linejoin:round;stroke-miterlimit:10;}
	.st6{fill:#FFFFFF;}
	.st7{opacity:0.5;}
	.st8{opacity:0.25;}
	.st9{opacity:0.75;}
	.st10{fill:#FFFFFF;stroke:#D6D3C2;stroke-width:0.5;stroke-miterlimit:10;}
	.st11{fill-rule:evenodd;clip-rule:evenodd;fill:#FFFFFF;}
	.st12{fill-rule:evenodd;clip-rule:evenodd;fill:#D6D3C2;}
	.st13{opacity:0.9;}
	.st14{fill:none;stroke:#FFB656;stroke-width:3;stroke-miterlimit:10;}
	.st15{fill:#E53869;}
	.st16{opacity:0.15;}
	.st17{fill:none;stroke:#EF476F;stroke-miterlimit:10;}
	.st18{opacity:0.65;fill:#FFFFFF;stroke:#212121;stroke-width:2;stroke-miterlimit:10;}
	.st19{opacity:0.5;fill:#FFFFFF;}
	.st20{opacity:0.5;fill:none;stroke:#EF476F;stroke-miterlimit:10;}
	.st21{fill:#DB2857;}
	.st22{fill:none;stroke:#DB2857;stroke-miterlimit:10;}
	.st23{opacity:0.35;fill:none;stroke:#FFFFFF;stroke-miterlimit:10;}
</style>
<g id="Layer_1">
</g>
<g id="Layer_2">
	<g>
		<path class="st21" d="M18.6,113.4c1.9-1.7,2.9-4.2,2.9-7.3V72h-9.6c-6.1,0-9.7,3.6-9.7,9.6v40.9h19.7v-8.2h-4.3L18.6,113.4z
			 M12.9,114.2c0,1-0.4,1.7-1.1,1.7h-1V81.6c0-1,0.5-1.7,1.1-1.7h1V114.2z"/>
		<path class="st21" d="M40.1,106.9c1.8-1.7,2.9-4.1,2.9-6.8V87.3l-3.1,1.9l3.1-7.8V72H23.6v50.5h8.6v-10.3h2.2v10.3H43v-14.8h-3.9
			L40.1,106.9z M34.3,102.8c0,0.7-0.3,1.5-1,1.5h-1.1V79.9h2.1V102.8z"/>
		<path class="st21" d="M63.1,82.5C63.1,82.5,63.1,82.5,63.1,82.5c-0.2,0.2-0.5,0.3-0.6,0.4c-0.8,0.6-1.7,1-2.7,1
			c-1.5,0-2.9-0.8-3.7-2.1c-0.4-0.7-0.6-1.6-0.6-2.4c-2.4,1.6-4.3,2.8-5.2,3.4L45,86v36.5h6V91.3h1.8v31.2h5.6V91.3h1.8v31.2h6V81.2
			c0,0,0,0,0,0C64.8,81.6,63.8,82.1,63.1,82.5z"/>
		<path class="st21" d="M69,80.8c-0.6,1.1-1,2.3-1,3.9v37.9h6.8c4.4,0,7-2.6,7-6.9V81c-2.8-0.3-5.6-0.5-8.1-0.5
			C71.9,80.5,70.4,80.6,69,80.8z M74.1,92.7c0-0.8,0.4-1.4,1-1.4h0.9v24.4c0,0.8-0.4,1.4-1,1.4h-0.9V92.7z"/>
		<path class="st21" d="M95.5,111.1c1.3-1.2,2.1-3,2.1-4.9V83.8c-4.3-1-9.1-2-13.9-2.6v41.3h6V115h1.9v7.5h6v-10.6h-3L95.5,111.1z
			 M91.5,108.2c0,0.6-0.3,1.2-0.9,1.2h-1V91.3h1.8V108.2z"/>
		<path class="st21" d="M112.6,87.9l-0.7-0.2c-0.8-0.3-2.5-0.8-4.6-1.4v23.1h-1.8V85.8c-1.8-0.5-3.8-1-6-1.6V115h7.8v0.7
			c0,0.7-0.4,1.2-1,1.2h-6.9v5.7h6.8c4.3,0,7-2.6,7-6.9V87.9c0,0-0.1,0-0.1,0H112.6z"/>
		<path class="st21" d="M60.6,23.9c0.1,0.1,0.3,0.2,0.5,0.1c2.5-0.7,5-1,7.3-1c0.3,0,0.5-0.3,0.4-0.6l-1.2-4.8
			c-0.1-0.5,0.6-0.8,0.8-0.3l3.5,5.9c0.1,0.1,0.2,0.2,0.3,0.2c3.2,0.6,6.1,1.7,8.6,3.4c0.2,0.1,0.4,0.1,0.6,0l3.5-3.1
			c0.4-0.3,1,0.1,0.7,0.6l-2.4,3.9c-0.1,0.2-0.1,0.4,0.1,0.6c3,2.7,5.1,6.2,6.3,10.3c0,0.2,0.2,0.3,0.4,0.3l3.2,0.6
			c0.5,0.1,0.5,0.8,0,0.9l-2.6,0.3c-0.3,0-0.4,0.3-0.4,0.5c0.8,4.8,0.2,10.1-2.1,15.6c-0.1,0.2,0,0.3,0.1,0.5
			c3,3.8,9.4,10.2,13.1,13.3c0.4,0.3,0.9-0.1,0.7-0.5c-1.5-4.3-1-10.8-0.1-14.9c0-0.1,0-0.3-0.1-0.4L97.6,51c-0.4-0.4,0.1-1,0.5-0.7
			l3.9,2.2c0.3,0.1,0.6,0,0.7-0.3c1.9-8.4,1.5-16.7-0.8-24c-0.1-0.2-0.3-0.3-0.5-0.3l-5.5,0.6c-0.5,0.1-0.7-0.7-0.2-0.9l4.8-2.1
			c0.2-0.1,0.3-0.4,0.2-0.6c-2.4-5.8-6.2-10.8-11-14.6c-0.2-0.1-0.4-0.1-0.6,0l-0.3,0.3c-0.4,0.4-1-0.1-0.7-0.5l0.2-0.3
			c0.1-0.2,0.1-0.5-0.1-0.6c-0.3-0.2-0.5-0.4-0.8-0.5c-0.2-0.1-0.5-0.1-0.6,0.2l-2.1,3.5c-0.3,0.4-1,0.2-0.8-0.3l1-4.4
			c0-0.2,0-0.4-0.2-0.5C76.5,2.6,66,1.2,53.8,3.9c-0.3,0.1-0.4,0.4-0.3,0.6l2.3,4.9c0.2,0.5-0.4,0.9-0.7,0.5l-4.6-5
			c-0.1-0.1-0.3-0.2-0.5-0.1c-1.5,0.4-3,0.9-4.6,1.5C45,6.4,45,6.8,45.2,7L60.6,23.9z"/>
		<path class="st21" d="M75.2,49.8c1.9,0.1,4.3,0.5,7,1.5c1.2-1.1,1.6-5.9,1.9-9.1l0,0c-16.8-1.6-29.3-13.3-32.6-17.1
			c-0.3-0.4-0.9-0.2-1,0.3c-1.1,4.2-4.9,19.3-5.2,27.3c-0.1,1.9,2.1,3,3.5,1.8c0,0-2.2-4.8-0.2-9.1c0,0,0,0,0,0c1.1-2,3-3.5,5.3-3.8
			l10.2-1.5l-8.5,5.4c-6.8,4.8-3.3,11.7-3.3,15.7c0,4-1.1,10.8-4.1,18.2c0.1-0.1,17.3-10.7,20.8-18.1c0,0-0.1-0.1-0.2-0.2
			C65.5,56.1,69.2,49.5,75.2,49.8z"/>
		<path class="st21" d="M113.5,83.4c-1.6-2.4-3.6-4.7-5.6-6.6c0,0-0.1-0.1-0.1-0.1c-5.7-2-11-5.3-15.3-9.6c-2.5-2.5-5-5.2-6.6-7.2
			c-0.1-0.1-0.2-0.1-0.3-0.1c-6.6,0.3-12.6,4-15.7,6.3c-0.3,0.2,0,0.6,0.3,0.5c6-2.2,14.5-1.1,19.3,1.6c0.3,0.2,0.1,0.6-0.2,0.6
			c-4.2-0.4-17.5-1.2-24.3,3.3c-2.3,1.5-4.5,5.2-5.7,7.4c-0.2,0.3,0.2,0.6,0.5,0.4c10.8-8.8,47.2,2.1,53.2,4
			C113.4,83.9,113.6,83.6,113.5,83.4z"/>
	</g>
</g>
<g id="Layer_3">
</g>
</svg>
