<?xml version="1.0" encoding="utf-8"?>
<!-- Generator: Adobe Illustrator 26.5.0, SVG Export Plug-In . SVG Version: 6.00 Build 0)  -->
<svg version="1.1" xmlns="http://www.w3.org/2000/svg" xmlns:xlink="http://www.w3.org/1999/xlink" x="0px" y="0px"
	 viewBox="0 0 160 170" style="enable-background:new 0 0 160 170;" xml:space="preserve">
<style type="text/css">
	.st0{fill:#DB2857;}
	.st1{fill:#FFFFFF;}
	.st2{opacity:0.5;}
	.st3{fill:#E53869;}
	.st4{fill:#212121;}
	.st5{opacity:0.15;}
	.st6{fill:none;stroke:#EF476F;stroke-miterlimit:10;}
	.st7{opacity:0.65;fill:#FFFFFF;stroke:#212121;stroke-width:2;stroke-miterlimit:10;}
	.st8{opacity:0.5;fill:#FFFFFF;}
	.st9{opacity:0.5;fill:none;stroke:#EF476F;stroke-miterlimit:10;}
	.st10{opacity:0.35;fill:none;stroke:#FFFFFF;stroke-miterlimit:10;}
	.st11{fill:#292524;}
	.st12{fill:#1767AE;}
	.st13{clip-path:url(#SVGID_00000056389283462421497980000015976643886433217936_);}
	.st14{clip-path:url(#SVGID_00000056386303227593807160000001084325272580958649_);}
	.st15{clip-path:url(#SVGID_00000077309996456343686600000011101531865805165970_);}
	.st16{fill:#606060;}
</style>
<g id="Background">
</g>
<g id="Layer_2">
	<g>
		<path class="st1" d="M26,155c2.6-2.4,4-5.8,4-10.1V98.1H16.8c-8.4,0-13.4,4.9-13.4,13.2v56.2h27.1v-11.3h-5.9L26,155z M18.2,156
			c0,1.4-0.6,2.3-1.5,2.3h-1.4v-47c0-1.4,0.6-2.4,1.5-2.4h1.4V156z"/>
		<path class="st1" d="M55.5,146c2.5-2.4,3.9-5.7,3.9-9.4v-17.5l-4.3,2.7l4.3-10.7v-13H32.9v69.4h11.8v-14.2h3v14.2h11.8v-20.3h-5.3
			L55.5,146z M47.6,140.5c0,1-0.5,2-1.4,2h-1.5v-33.6h2.9V140.5z"/>
		<path class="st1" d="M87.1,112.5C87.1,112.5,87.1,112.5,87.1,112.5c-0.3,0.2-0.6,0.4-0.9,0.6c-1.1,0.9-2.4,1.3-3.7,1.3
			c-2.1,0-4-1.1-5.1-2.9c-0.6-1-0.8-2.2-0.8-3.3c-3.2,2.2-5.9,3.9-7.1,4.7l-7.3,4.5v50.1h8.3v-43H73v43h7.7v-43h2.5v43h8.3v-56.7
			c0,0,0,0,0,0C89.6,111.3,88.1,111.9,87.1,112.5z"/>
		<path class="st1" d="M95.3,110.1c-0.8,1.4-1.3,3.2-1.3,5.3v52.1h9.4c6.1,0,9.7-3.5,9.7-9.5v-47.6c-3.9-0.4-7.6-0.7-11.2-0.7
			C99.3,109.7,97.2,109.9,95.3,110.1z M102.3,126.5c0-1.2,0.5-1.9,1.3-1.9h1.2V158c0,1.1-0.5,1.9-1.3,1.9h-1.2V126.5z"/>
		<path class="st1" d="M131.8,151.8c1.8-1.7,2.8-4.1,2.8-6.8v-30.7c-5.9-1.4-12.5-2.7-19.1-3.5v56.8h8.3v-10.4h2.6v10.4h8.3V153
			h-4.2L131.8,151.8z M126.3,147.9c0,0.8-0.4,1.7-1.2,1.7h-1.3v-25h2.5V147.9z"/>
		<path class="st1" d="M155.3,119.9l-0.9-0.3c-1.2-0.4-3.4-1.1-6.4-1.9v31.8h-2.5V117c-2.5-0.7-5.2-1.4-8.3-2.1v42.2H148v0.9
			c0,0.9-0.6,1.6-1.3,1.6h-9.5v7.9h9.4c6,0,9.7-3.6,9.7-9.5v-38.2c-0.1,0-0.1,0-0.1,0H155.3z"/>
		<path class="st1" d="M83.7,31.9c0.2,0.2,0.4,0.2,0.6,0.2c3.5-0.9,6.8-1.3,10.1-1.3c0.4,0,0.7-0.4,0.6-0.8l-1.6-6.6
			c-0.2-0.7,0.8-1.1,1.1-0.5l4.9,8.1c0.1,0.2,0.3,0.3,0.4,0.3c4.4,0.8,8.4,2.4,11.9,4.7c0.2,0.2,0.5,0.1,0.8,0l4.8-4.2
			c0.5-0.5,1.3,0.2,0.9,0.8l-3.2,5.4c-0.2,0.3-0.1,0.6,0.1,0.8c4.1,3.7,7.1,8.6,8.6,14.2c0.1,0.2,0.3,0.4,0.5,0.4l4.4,0.8
			c0.7,0.1,0.7,1.1,0,1.2l-3.6,0.5c-0.4,0-0.6,0.4-0.5,0.7c1,6.5,0.2,13.9-3,21.5c-0.1,0.2-0.1,0.4,0.1,0.6
			c4.1,5.2,12.9,14,18.1,18.3c0.5,0.4,1.2-0.1,1-0.7c-2.1-5.9-1.4-14.9-0.2-20.4c0-0.2,0-0.4-0.2-0.6l-5.7-6c-0.5-0.5,0.1-1.3,0.8-1
			l5.4,3c0.4,0.2,0.8,0,0.9-0.4c2.6-11.6,2.1-23-1.1-33.1c-0.1-0.3-0.4-0.5-0.7-0.4l-7.6,0.8c-0.7,0.1-1-0.9-0.3-1.2l6.6-2.8
			c0.3-0.1,0.5-0.5,0.3-0.8c-3.3-7.9-8.5-14.8-15.2-20.1c-0.2-0.2-0.6-0.2-0.8,0l-0.4,0.4c-0.5,0.5-1.3-0.1-1-0.8l0.3-0.5
			c0.2-0.3,0.1-0.6-0.2-0.8c-0.4-0.3-0.7-0.5-1.1-0.8c-0.3-0.2-0.7-0.1-0.9,0.2l-2.8,4.8c-0.4,0.6-1.3,0.2-1.1-0.5l1.4-6.1
			c0.1-0.3-0.1-0.6-0.3-0.7c-11.2-5.9-25.5-8-42.4-4.2c-0.4,0.1-0.6,0.5-0.4,0.9l3.2,6.8c0.3,0.6-0.5,1.2-1,0.7l-6.3-6.9
			c-0.2-0.2-0.4-0.2-0.6-0.2c-2.1,0.6-4.2,1.3-6.3,2c-0.4,0.1-0.6,0.7-0.3,1L83.7,31.9z"/>
		<path class="st1" d="M103.8,67.6c2.7,0.1,5.9,0.7,9.6,2c1.7-1.6,2.2-8.2,2.6-12.6l0,0c-23.1-2.2-40.2-18.3-44.8-23.4
			c-0.4-0.5-1.3-0.3-1.4,0.3c-1.5,5.8-6.7,26.6-7.2,37.6c-0.1,2.6,2.8,4.1,4.9,2.5c0,0-3-6.6-0.2-12.5c0,0,0,0,0,0
			c1.5-2.8,4.2-4.8,7.3-5.2l14-2l-11.7,7.4c-9.4,6.7-4.6,16-4.6,21.5s-1.5,14.9-5.6,25c0.2-0.1,23.8-14.7,28.7-24.9
			c0,0-0.1-0.1-0.2-0.3C90.5,76.2,95.6,67.2,103.8,67.6z"/>
		<path class="st1" d="M156.5,113.7c-2.2-3.4-4.9-6.4-7.7-9.1c0,0-0.1-0.1-0.2-0.1c-7.9-2.8-15.1-7.3-21-13.2
			c-3.5-3.5-6.8-7.1-9.1-9.9c-0.1-0.1-0.2-0.2-0.3-0.2c-9,0.4-17.3,5.5-21.5,8.6c-0.4,0.3-0.1,0.9,0.4,0.7c8.3-3,20-1.6,26.5,2.2
			c0.4,0.2,0.2,0.8-0.2,0.8c-5.7-0.5-24.1-1.7-33.4,4.6c-3.2,2.1-6.2,7.2-7.8,10.2c-0.2,0.4,0.3,0.8,0.6,0.5
			c14.9-12.1,64.9,2.9,73.2,5.5C156.4,114.5,156.7,114,156.5,113.7z"/>
	</g>
</g>
</svg>
